<svg xmlns="http://www.w3.org/2000/svg" width="24" height="24" fill="none"><path d="M14 1v2h2v2h-2v2h-2V5h-2V3h2V1h2Z" fill="#fff"/><path fill-rule="evenodd" clip-rule="evenodd" d="M1 13.107a9.895 9.895 0 0 1 5.82-9.018l1.324 1.323a7.893 7.893 0 0 0 10.444 10.444l1.323 1.324A9.895 9.895 0 0 1 10.893 23C5.429 23 1 18.57 1 13.107Zm4.538-5.8a7.893 7.893 0 1 0 11.154 11.154 9.896 9.896 0 0 1-1.353.093c-5.463 0-9.893-4.43-9.893-9.893 0-.46.032-.91.092-1.353Z" fill="#fff"/><path d="M20 6v3h3v2h-3v3h-2v-3h-3V9h3V6h2Z" fill="#fff"/></svg>